<svg xmlns="http://www.w3.org/2000/svg" width="128" height="128" viewBox="12 10 104 104">
  <defs>
    <linearGradient id="body" x1="0" y1="0" x2="0" y2="1"><stop stop-color="#62a0ea"/><stop offset="1" stop-color="#1c71d8"/></linearGradient>
    <linearGradient id="roof" x1="0" y1="0" x2="0" y2="1"><stop stop-color="#99c1f1"/><stop offset="1" stop-color="#3584e4"/></linearGradient>
  </defs>
  <rect x="20" y="48" width="88" height="66" rx="14" fill="#1a5fb4"/>
  <rect x="20" y="42" width="88" height="66" rx="14" fill="url(#body)"/>
  <path d="M56 13q8-6 16 0l40.8 30.6A8 8 0 0 1 116 50a8 8 0 0 1-8 8H20a8 8 0 0 1-8-8 8 8 0 0 1 3.2-6.4Z" fill="url(#roof)"/>
  <rect x="36" y="62" width="22" height="22" rx="5" fill="#fff"/>
  <rect x="70" y="62" width="22" height="22" rx="5" fill="#fff"/>
  <path d="M39 93q25 10 50 0" fill="none" stroke="#c0dbf6" stroke-width="6" stroke-linecap="round"/>
  <path d="m75 72 4 4 8-9" fill="none" stroke="#26a269" stroke-width="3" stroke-linecap="round" stroke-linejoin="round"/>
</svg>
